<?xml version="1.0" encoding="utf-8"?>
<!-- Generator: Adobe Illustrator 15.0.2, SVG Export Plug-In . SVG Version: 6.00 Build 0)  -->
<!DOCTYPE svg PUBLIC "-//W3C//DTD SVG 1.1//EN" "http://www.w3.org/Graphics/SVG/1.1/DTD/svg11.dtd">
<svg version="1.1" id="Layer_1" xmlns="http://www.w3.org/2000/svg" xmlns:xlink="http://www.w3.org/1999/xlink" x="0px" y="0px"
	 width="442.287px" height="418.568px" viewBox="0 0 442.287 418.568" enable-background="new 0 0 442.287 418.568"
	 xml:space="preserve">
<linearGradient id="SVGID_1_" gradientUnits="userSpaceOnUse" x1="7.4038" y1="604.5002" x2="7.4038" y2="799.5999" gradientTransform="matrix(-1 0 0 -1 229.1855 1022.5688)">
	<stop  offset="0" style="stop-color:#FFFFFF"/>
	<stop  offset="1" style="stop-color:#DBDBDB"/>
</linearGradient>
<path fill="url(#SVGID_1_)" d="M30.003,226.268c0,105.926,85.87,191.801,191.801,191.801c105.412,0,190.932-85.049,191.758-190.271
	c-2.572,32.894-87.369,59.314-191.676,59.314c-105.928,0-191.797-27.24-191.797-60.845v-3.299
	C30.069,224.072,30.003,225.161,30.003,226.268z"/>
<ellipse fill="#E8E8E8" cx="221.886" cy="226.268" rx="191.797" ry="60.845"/>
<path fill="#FFFFFF" d="M328.983,226.271c0,17.756-1.348,34.95-3.869,51.271c53.215-10.814,88.486-29.738,88.486-51.273h-84.617
	V226.271z"/>
<path opacity="0.1" enable-background="new    " d="M325.021,277.561c0.025-0.006,0.053-0.012,0.08-0.018l-103.215-51.275h-0.084
	l103.229,51.281L325.021,277.561z"/>
<polygon opacity="0.2" fill="#FFFFFF" enable-background="new    " points="325.114,277.542 325.101,277.543 325.112,277.549 "/>
<g>
	<g>
		<path fill="#FFFFFF" d="M221.886,226.268L325.1,277.544c0.004,0,0.01-0.002,0.015-0.002c2.521-16.321,3.868-33.515,3.868-51.271
			v-0.004c0-37.908-6.142-73.248-16.739-103.002l-0.029,0.015L221.886,226.268z"/>
	</g>
</g>
<path fill="none" stroke="#000000" stroke-width="1.25" d="M413.683,226.268c0,21.465-35.039,40.336-87.961,51.164"/>
<g>
	<path d="M339.785,268.863c0.461-4.064,0.905-11.523,1.034-13.33c0.022-0.511,0.018-1.016-0.02-1.342
		c0.104-0.03,0.372-0.076,0.735-0.182c0.413-0.121,0.615-0.205,0.691-0.229l0.64,1.053c0.99,1.398,6.394,9.458,7.746,11.231
		c1.169,1.436,1.329,1.5,3.101,1.217c0.074,0.063,0.131,0.355,0.067,0.43c-0.655,0.161-2.099,0.519-2.903,0.749
		c-1.038,0.297-2.431,0.726-3.04,0.957c-0.04-0.044-0.148-0.324-0.119-0.415c0.471-0.218,0.897-0.397,1.198-0.625
		c0.337-0.293,0.278-0.501,0.083-0.782c-0.604-1.034-2.293-3.387-3.154-4.628c-0.025,0.007-0.192-0.084-0.244-0.07
		c-0.268,0.05-0.839,0.213-2.239,0.616c-1.583,0.453-1.869,0.536-2.145,0.643c-0.081,0.023-0.154,0.158-0.157,0.242
		c-0.113,1.465-0.362,4.514-0.239,5.235c0.076,0.456,0.169,0.88,1.051,0.823c0.334-0.012,0.616-0.008,1.176-0.113
		c0.067,0.038,0.104,0.365,0.067,0.43c-0.571,0.164-1.839,0.443-2.981,0.771c-1.193,0.344-1.924,0.639-2.417,0.778
		c-0.085-0.005-0.182-0.342-0.12-0.415C339.294,271.165,339.527,270.903,339.785,268.863z M341.478,256.553
		c-0.1,1.319-0.272,5.217-0.337,6.471c0.032,0.104,0.065,0.122,0.151,0.126c0.241-0.042,0.837-0.213,2.083-0.568
		c0.623-0.181,1.583-0.456,1.758-0.533c0.026-0.008,0.057-0.101,0.009-0.173l-3.566-5.38
		C341.546,256.504,341.47,256.526,341.478,256.553z"/>
	<path d="M359.156,255.049c-0.49,2.539-1.636,7.812-2.256,10.392c0.008,0.111,0.059,0.181,0.135,0.155
		c0.761-0.102,2.853-0.745,3.418-0.927c0.335-0.106,0.903-0.629,1.11-2.906c0.059-0.076,0.334-0.192,0.411-0.217l0.065,0.034
		c0.116,1.237,0.009,2.321-0.022,2.843c-0.03,0.349-0.246,0.561-0.374,0.602c-1.724,0.553-5.834,1.701-6.804,2.039
		c-0.06-0.009-0.186-0.224-0.203-0.274c0.671-2.511,1.97-7.748,2.428-10.477c0.019-0.118-0.042-0.128-0.067-0.119
		c-0.72,0.23-2.777,0.891-3.242,1.123c-0.625,0.259-0.953,0.478-1.105,2.653c-0.069,0.05-0.419,0.104-0.504,0.019
		c-0.072-1.11-0.194-2.291-0.296-3.052c0.519,0.031,1.153-0.115,1.823-0.329l3.47-1.113c0.823-0.262,1.432-0.488,1.877-0.687
		C359.047,254.8,359.14,254.998,359.156,255.049z"/>
	<path d="M368.288,262.381c-0.527,0.207-1.536,0.52-2.34,0.837c-1.028,0.408-1.878,0.828-2.307,0.999
		c-0.069-0.03-0.188-0.332-0.157-0.402c0.342-0.165,0.697-0.364,0.9-0.588c0.251-0.245,0.298-0.494,0.046-1.208
		c-0.199-0.646-0.993-2.656-1.538-4.037c-0.387-0.979-0.735-1.858-0.928-2.277c-0.06-0.149-0.119-0.302-0.35-0.441
		c-0.334-0.188-0.692-0.136-1.193-0.082c-0.045-0.041-0.155-0.316-0.148-0.375c0.697-0.364,1.94-1.115,2.69-1.935
		c0.244,0.689,1.021,2.731,1.628,4.264c0.535,1.357,1.239,3.14,1.74,4.335c0.21,0.528,0.474,0.684,0.875,0.671
		c0.281-0.024,0.478-0.044,0.999-0.191C368.236,262.026,368.355,262.325,368.288,262.381z M361.435,250.542
		c-0.096,0.126-0.709,0.485-0.925,0.452c-0.375,0.005-0.736-0.319-0.884-0.695c-0.104-0.191-0.154-0.462-0.113-0.651
		c0.098-0.271,0.505-0.636,0.854-0.774c0.326-0.129,0.663-0.086,0.768-0.041c0.211,0.092,0.37,0.348,0.43,0.498
		C361.743,249.781,361.661,250.308,361.435,250.542z"/>
	<path d="M369.721,261.255c0.353-0.324,0.151-0.796-0.074-1.315c-0.559-1.261-1.865-3.988-2.602-5.491
		c-0.071-0.146-0.298-0.546-0.612-0.692c-0.349-0.159-0.893-0.044-1.269,0.051c-0.059-0.062-0.118-0.362-0.08-0.412
		c0.959-0.56,1.945-1.675,2.349-2.324c0.024-0.013,0.096,0.014,0.108,0.038c0.094,0.193,0.546,1.174,0.713,1.514
		c0.023,0.049,0.12,0.062,0.133,0.025c0.822-1.757,1.676-2.838,2.451-3.217c1.115-0.547,2.322-0.297,3.221,0.434
		c0.062,0.061,0.146-0.01,0.158-0.047c0.797-1.624,1.665-2.86,2.634-3.337c1.794-0.88,3.394,0.05,4.535,2.318
		c0.644,1.247,1.879,3.77,2.379,4.728c0.106,0.219,0.225,0.401,0.431,0.451c0.349,0.098,0.713-0.02,1.403-0.268
		c0.06,0.06,0.167,0.339,0.117,0.423c-0.485,0.238-1.346,0.569-2.316,1.046c-1.139,0.558-1.697,0.893-2.146,1.143
		c-0.072-0.023-0.215-0.315-0.189-0.388c0.449-0.312,0.692-0.489,0.924-0.754c0.255-0.275,0.018-0.761-0.47-1.754
		c-0.785-1.661-1.699-3.648-2.236-4.317c-0.587-0.825-1.62-1.522-3.1-0.797c-0.629,0.31-1.213,0.897-1.631,1.884
		c-0.025,0.072,0.034,0.193,0.058,0.242c0.311,0.449,0.633,1.043,0.917,1.625c0.631,1.285,1.7,3.527,2.236,4.497
		c0.167,0.281,0.384,0.415,0.613,0.392c0.326-0.01,0.653-0.079,1.187-0.28c0.084,0.048,0.19,0.328,0.142,0.412
		c-0.679,0.332-1.418,0.605-2.363,1.067c-0.872,0.429-1.686,0.918-2.122,1.132c-0.072-0.025-0.202-0.293-0.189-0.388
		c0.412-0.263,0.595-0.382,0.838-0.623c0.256-0.275,0.185-0.541-0.075-1.193c-0.51-1.226-2.175-4.56-2.629-5.178
		c-0.479-0.607-1.475-1.413-2.931-0.7c-0.411,0.203-1.02,0.742-1.387,1.463c-0.148,0.313-0.26,0.639-0.106,0.953
		c0.774,1.577,2.201,4.485,2.844,5.734c0.202,0.413,0.394,0.68,0.89,0.587c0.276-0.045,0.593-0.141,1.004-0.281
		c0.073,0.023,0.202,0.351,0.142,0.411c-0.558,0.273-1.417,0.604-2.29,1.032c-1.261,0.618-1.612,0.882-2.22,1.18
		c-0.097-0.013-0.226-0.34-0.189-0.39C369.333,261.628,369.526,261.472,369.721,261.255z"/>
	<path d="M380.986,244.901c0.933-0.544,2.34-1.614,2.835-2.156c0.148,0.416,0.443,1.025,2.427,4.43
		c0.585,1.005,1.17,2.006,1.559,2.406c0.621,0.639,1.528,1.015,2.741,0.307c0.816-0.476,1.176-1.091,1.425-1.736
		c0.097-0.212,0.026-0.547-0.099-0.817c-0.213-0.471-2.37-4.117-3.11-5.279c-0.159-0.221-0.396-0.52-0.837-0.419
		c-0.381,0.098-0.921,0.351-1.592,0.648c-0.074-0.019-0.214-0.313-0.171-0.401c1.26-0.733,2.909-1.978,3.411-2.457
		c0.188,0.483,0.776,1.547,1.348,2.525l2.716,4.604c0.569,0.98,0.829,1.047,1.319,0.763c0.326-0.191,0.406-0.269,0.695-0.469
		c0.027,0.047,0.228,0.337,0.185,0.424c-0.704,0.723-1.889,2.069-2.303,2.592c-0.068,0.041-0.18,0.012-0.249-0.104
		c-0.187-0.267-0.543-0.935-0.775-1.33c-0.026-0.047-0.137-0.075-0.18,0.01c-0.63,1.868-1.43,2.803-2.153,3.225
		c-2.192,1.278-3.52,0.021-4.443-1.566c-0.638-1.096-2.028-3.535-2.688-4.558c-0.268-0.407-0.454-0.672-0.802-0.626
		c-0.241,0.015-0.688,0.214-1.112,0.396C381.069,245.258,380.953,244.95,380.986,244.901z"/>
	<path d="M394.715,237.651c-0.046,0.028-0.057,0.161-0.027,0.208c0.822,1.301,2.371,3.802,3.029,4.793
		c0.485,0.716,0.805,1.121,1.024,1.268c0.515,0.41,1.144,0.395,1.716,0.033c0.569-0.36,0.826-0.714,1.023-1.156
		c0.037,0.007,0.18,0.331,0.2,0.417c-0.086,1.075-0.78,1.897-1.466,2.331c-0.73,0.461-1.597,0.657-2.385,0.166
		c-0.62-0.374-1.02-0.954-1.941-2.415c-0.766-1.209-2.17-3.482-2.748-4.395c-0.042-0.067-0.108-0.123-0.19-0.103
		c-0.213,0.071-0.864,0.451-1.199,0.631c-0.057-0.093-0.144-0.581-0.164-0.664c0.245-0.218,0.75-0.634,0.866-0.803
		c0.03-0.051-0.002-0.157-0.018-0.18l-1.142-1.803c0.318-0.458,0.709-1.662,0.716-2.051c0.056-0.065,0.221-0.107,0.305-0.127
		c0.135,0.362,0.642,1.318,1.666,2.939c0.027,0.046,0.155,0.094,0.199,0.064c1.12-0.707,2.162-1.432,2.407-1.649
		c0.091,0.295,0.273,0.786,0.424,1.074C396.304,236.677,395.423,237.204,394.715,237.651z"/>
</g>
<path fill="none" stroke="#000000" stroke-width="0.5" d="M325.722,277.432c-29.926,6.125-65.572,9.681-103.836,9.681
	c-105.928,0-191.797-27.24-191.797-60.845c0-33.602,85.868-60.842,191.797-60.842c17.811,0,35.053,0.768,51.418,2.209"/>
<path fill="none" stroke="#000000" stroke-width="0.5" d="M325.104,174.979c53.268,10.81,88.578,29.742,88.578,51.289"/>
<g>
	<path d="M7.364,234.87c0.75,0.601,1.83,0.87,2.91,0.87c1.29,0,3.12-0.721,3.12-3c0-1.859-1.141-2.671-3.93-4.229
		c-2.88-1.59-4.681-3-4.681-5.82c0-3.33,2.699-5.188,6.089-5.188c2.28,0,3.57,0.42,4.892,0.57c-0.21,0.989-0.392,2.938-0.511,4.408
		c-0.09,0.21-1.021,0.21-1.17,0.03c-0.181-1.59-0.42-2.55-1.109-3.06c-0.721-0.511-1.681-0.66-2.521-0.66
		c-2.039,0-3.028,1.59-3.028,2.88c0,1.71,0.75,2.43,2.068,3.27c1.23,0.78,2.91,1.5,3.99,2.131c1.681,0.989,2.82,2.25,2.82,4.409
		c0,2.88-2.46,5.67-6.931,5.67c-1.921,0-3.779-0.659-4.561-0.96c-0.27-0.359-0.898-3.688-0.99-4.8c0.062-0.271,1.08-0.51,1.262-0.39
		C5.654,232.8,6.284,234.09,7.364,234.87z"/>
</g>
<g>
	<path d="M421.666,218.221c0.57,0,2.01,0.09,3.061,0.09c0.66,0,1.08,0,1.35-0.029c0.09,0.21,0.359,0.659,1.141,1.59
		c3.149,3.93,9.75,12.028,11.069,13.59l0.091-0.062c0-3.96,0.059-10.828-0.121-12.778c-0.06-0.87-0.24-1.38-1.08-1.65
		c-0.51-0.149-1.08-0.21-1.799-0.3c-0.061-0.061-0.031-0.39,0.029-0.45c0.779,0,2.07,0.09,3.479,0.09c0.9,0,2.431-0.09,2.791-0.09
		c0.06,0.061,0.06,0.39,0,0.45c-0.541,0.09-0.811,0.149-1.17,0.24c-0.781,0.239-0.961,0.87-0.99,1.62
		c-0.18,2.369-0.15,8.31-0.211,12.238c0,1.351,0.031,3.03,0.061,3.99c-0.33-0.03-1.35-0.03-1.74,0
		c-1.439-2.16-10.648-13.56-11.969-15.24c-0.029-0.029-0.12,0-0.12,0.03c-0.06,3.03-0.03,10.83,0.03,12.449
		c0.061,1.439,0.48,1.801,1.17,1.979c0.449,0.12,1.02,0.181,1.59,0.24c0.09,0.06,0.061,0.449-0.029,0.479
		c-0.57,0-1.891-0.091-3.361-0.091c-1.5,0-2.459,0.091-3.059,0.091c-0.061-0.061-0.061-0.421,0-0.479
		c0.6-0.061,0.93-0.091,1.319-0.21c0.66-0.181,1.08-0.511,1.17-1.98c0.09-1.409,0.21-6.898,0.271-13.108c0-0.39-0.24-1.05-0.69-1.44
		c-0.63-0.6-1.261-0.66-2.34-0.81C421.576,218.611,421.606,218.281,421.666,218.221z"/>
</g>
<g>
	<path d="M208.297,136.495c1.17,0,2.13,0.119,3.689,0.119c1.68-0.029,2.49-0.061,3.18-0.091c0.06,0.062,0.06,0.392,0,0.45
		c-0.75,0.15-0.96,0.18-1.23,0.3c-0.39,0.182-0.51,0.512-0.3,1.29c0.72,2.971,2.55,9.21,3.57,12.601c0,0,0.06-0.03,0.09-0.061
		c1.05-2.91,4.11-11.58,4.68-13.8c0.211,0.03,0.93,0,1.11-0.03c0.54,2.28,3.87,11.551,4.83,13.979c0.03,0,0.091-0.029,0.12-0.029
		c0.75-2.37,2.91-9.479,3.42-11.97c0.181-0.93,0.24-1.71-0.54-1.95c-0.479-0.12-0.84-0.21-1.681-0.33c-0.06-0.09-0.09-0.39,0-0.45
		c0.631,0,2.07,0.092,3.24,0.092c1.619,0,2.399-0.062,3-0.092c0.09,0.062,0.09,0.392,0,0.45c-0.721,0.15-1.141,0.24-1.439,0.36
		c-0.63,0.3-0.93,0.75-1.35,1.95c-1.201,3.448-4.051,12.778-4.891,15.839c-0.15,0-0.961-0.03-1.141,0.029
		c-0.75-2.641-3.45-10.319-4.83-14.1c-0.03,0-0.09,0-0.12,0.06c-1.08,3.12-4.05,11.49-4.8,13.979c-0.12-0.029-1.05-0.029-1.23,0.03
		c-0.87-3.66-3.45-12.869-4.439-15.689c-0.51-1.56-0.81-1.95-1.65-2.188c-0.48-0.12-0.78-0.182-1.35-0.271
		C208.177,136.915,208.177,136.554,208.297,136.495z"/>
</g>
<g>
	<path d="M208.267,18.492c-0.09,0.149-0.3,0.239-1.35,0.239c-4.71,0-8.25-0.09-9.66-0.09c-0.9,0-2.13,0.03-2.85,0.09
		c-0.06-0.029-0.06-0.27-0.03-0.33c2.82-3.779,9.72-14.64,10.95-17.099c0.03-0.09,0-0.18-0.03-0.18c-1.41,0-6.18-0.03-7.77,0.06
		c-0.72,0.061-1.14,0.271-1.59,0.87c-0.39,0.54-0.87,1.561-1.32,2.7c-0.06,0.06-0.51-0.12-0.51-0.18c0.27-1.2,0.63-2.851,0.78-4.53
		c0.06-0.03,0.21-0.061,0.3-0.03c0.54,0.271,1.44,0.3,2.49,0.3h6.03c1.65,0,3.45,0,4.56-0.12c0.06,0,0.12,0.15,0.12,0.24
		c-1.38,2.37-8.7,14.219-10.62,17.159c-0.03,0.06-0.03,0.15,0.03,0.15c0.9,0.12,5.4,0.18,7.709,0.149c0.33,0,0.93-0.09,1.5-0.6
		c0.69-0.57,1.41-1.86,2.16-3.57c0.09,0,0.36,0.09,0.45,0.15C209.497,14.712,208.717,17.863,208.267,18.492z"/>
	<path d="M221.227,16.122c0.03,0.149-0.03,0.45-0.06,0.51c-1.44,1.56-3.21,2.34-4.68,2.34c-1.5,0-2.7-0.54-3.51-1.439
		c-1.14-1.23-1.56-2.971-1.56-4.591c0-2.43,0.99-4.26,2.58-5.25c0.81-0.54,2.28-0.96,3.06-0.96c2.79,0,3.72,2.641,3.959,4.08
		c0.03,0.09,0.09,0.21,0.36,0.24c0.03,0.09-0.03,0.36-0.12,0.39c-1.17,0.391-5.34,0.631-7.65,0.69c-0.12,0-0.18,0.18-0.18,0.33
		c0.03,1.17,0.45,2.49,1.11,3.3c0.9,1.11,2.04,1.53,3.3,1.53c1.14,0,2.19-0.24,3.27-1.26
		C221.137,16.032,221.227,16.062,221.227,16.122z M213.517,11.202c0,0.09,0.06,0.18,0.09,0.18c0.81,0.06,4.44-0.06,5.07-0.21
		c0.06-0.03,0.18-0.12,0.18-0.24c-0.18-1.53-1.02-3.42-2.76-3.42C214.747,7.512,213.637,8.802,213.517,11.202z"/>
	<path d="M223.447,18.012c0.42-0.149,0.54-0.63,0.569-1.2c0.09-1.05,0.062-3.12,0.062-4.859c0-1.5-0.03-2.58-0.062-2.79
		c-0.06-0.36-0.24-0.57-1.41-0.9c-0.029-0.06,0-0.39,0.091-0.42c1.17-0.15,2.729-0.66,3.51-1.14c0.028,0,0.09,0.06,0.09,0.12
		c-0.062,0.6-0.09,1.26-0.12,1.77c0,0.09,0.061,0.15,0.12,0.12c1.83-1.47,3.21-1.98,4.14-1.98c1.201,0,2.07,0.57,2.67,1.53
		c0.541,0.84,0.721,1.98,0.721,3.42c0,1.561,0,4.32,0.029,5.521c0,0.359,0.09,0.6,0.391,0.689c0.391,0.181,0.75,0.271,1.29,0.33
		c0.03,0.09,0,0.42-0.091,0.48c-0.42,0-1.109-0.091-2.608-0.091c-1.44,0-2.312,0.061-2.94,0.091c-0.06-0.061-0.06-0.42,0-0.48
		c0.541-0.06,0.961-0.12,1.141-0.18c0.48-0.15,0.602-0.48,0.631-0.931c0.061-1.319,0.09-5.31-0.061-6.329
		c-0.09-0.511-0.301-1.41-0.871-1.921c-0.389-0.39-0.93-0.659-1.829-0.659c-0.869,0-1.71,0.33-2.431,0.989
		c-0.209,0.21-0.3,0.45-0.3,1.08c0,2.25,0,5.16,0.06,6.48c0.031,0.87,0.182,1.08,0.541,1.2c0.271,0.12,0.779,0.21,1.261,0.27
		c0.028,0.061,0,0.39-0.03,0.48c-0.51,0-1.351-0.091-2.88-0.091c-1.739,0-2.25,0.091-2.729,0.091c-0.061-0.061-0.061-0.391,0-0.48
		C222.787,18.192,223.147,18.132,223.447,18.012z"/>
	<path d="M241.896,18.702c-0.629,0-1.799-0.09-2.76-0.09c-1.229,0-2.279,0.09-2.789,0.09c-0.062-0.061-0.062-0.42,0-0.48
		c0.42-0.03,0.869-0.09,1.17-0.24c0.358-0.149,0.51-0.39,0.539-1.229c0.061-0.75,0.061-3.15,0.061-4.8c0-1.17,0-2.221-0.03-2.73
		c0-0.18,0-0.359-0.18-0.6c-0.271-0.33-0.66-0.42-1.2-0.57c-0.029-0.06-0.029-0.39,0-0.45c0.87-0.09,2.46-0.359,3.57-0.899
		c-0.03,0.81-0.061,3.239-0.061,5.069c0,1.62,0,3.75,0.029,5.19c0,0.63,0.21,0.9,0.63,1.05c0.3,0.09,0.511,0.15,1.11,0.21
		C241.985,18.312,241.985,18.672,241.896,18.702z M239.646,3.672c-0.149,0.09-0.93,0.21-1.14,0.09
		c-0.391-0.149-0.631-0.63-0.631-1.08c-0.028-0.24,0.03-0.54,0.149-0.72c0.211-0.24,0.781-0.45,1.201-0.45
		c0.39,0,0.719,0.18,0.81,0.271c0.181,0.18,0.239,0.51,0.239,0.689C240.276,3.012,239.978,3.522,239.646,3.672z"/>
	<path d="M246.576,8.262c-0.062,0-0.15,0.12-0.15,0.18c0,1.71-0.03,4.979,0,6.301c0.03,0.96,0.091,1.529,0.21,1.8
		c0.24,0.689,0.84,1.05,1.59,1.05s1.2-0.18,1.65-0.479c0.03,0.029-0.029,0.42-0.061,0.51c-0.721,0.96-1.859,1.319-2.76,1.319
		c-0.961,0-1.891-0.329-2.341-1.26c-0.358-0.72-0.39-1.5-0.39-3.419c0-1.59,0.029-4.56,0.029-5.76c0-0.09-0.029-0.18-0.119-0.21
		c-0.24-0.061-1.08-0.09-1.5-0.12c0-0.12,0.209-0.63,0.24-0.72c0.358-0.061,1.078-0.15,1.289-0.24c0.061-0.03,0.09-0.15,0.09-0.18
		v-2.37c0.569-0.24,1.649-1.141,1.891-1.5c0.09-0.03,0.27,0.029,0.359,0.06c-0.09,0.42-0.181,1.62-0.181,3.75
		c0,0.061,0.091,0.18,0.15,0.18c1.47,0,2.88-0.06,3.239-0.119c-0.09,0.33-0.211,0.899-0.239,1.26
		C248.646,8.292,247.506,8.262,246.576,8.262z"/>
</g>
<g>
	<path d="M228.229,245.682c-1.051-0.54-2.25-0.72-3.779-0.72c-4.41,0-7.11,3.18-7.11,8.55c0,5.58,3.03,9.239,8.129,9.239
		c0.9,0,2.431-0.12,3.57-1.199c0.778-0.78,1.29-1.59,1.948-2.761c0.092-0.029,0.422,0.12,0.451,0.24
		c-0.391,1.47-1.561,3.63-2.25,3.989c-0.871,0.271-2.461,0.63-4.319,0.63c-6.45,0-10.23-3.54-10.23-9.869
		c0-3.271,1.44-6.391,4.68-8.13c1.59-0.869,3.571-1.38,6.149-1.38c2.19,0,4.141,0.449,5.551,0.569
		c-0.211,0.84-0.511,3.061-0.541,4.32c-0.09,0.12-0.568,0.18-0.568,0.06C229.64,246.943,229.25,246.193,228.229,245.682z"/>
</g>
<g>
	<path d="M215.092,304.011c0.69,0,1.77,0.09,3.39,0.09h5.73c1.109,0,2.58-0.029,3.148-0.119c0.031,0.029,0.091,0.061,0.091,0.09
		c-0.271,0.961-0.449,2.82-0.539,3.93c-0.091,0.061-0.421,0.09-0.511,0.031c-0.061-0.9-0.211-1.531-0.33-1.92
		c-0.211-0.66-0.449-1.08-1.561-1.141c-0.75-0.061-3.99-0.09-4.47,0c-0.21,0.029-0.3,0.27-0.3,0.42c-0.06,1.289-0.09,6.27-0.06,6.93
		c0,0.119,0.06,0.24,0.12,0.24c0.75,0.061,3.78,0.029,4.65-0.029c0.899-0.061,1.108-0.512,1.29-1.051
		c0.119-0.33,0.21-0.689,0.27-1.051c0.09-0.059,0.479-0.059,0.54,0c-0.09,0.541-0.21,1.711-0.21,2.701c0,1.17,0.061,1.92,0.061,2.49
		c-0.09,0.119-0.449,0.119-0.51,0.029c-0.091-0.539-0.121-0.689-0.211-1.051c-0.09-0.359-0.24-0.959-1.199-1.049
		c-0.811-0.061-3.839-0.061-4.649-0.031c-0.09,0-0.15,0.211-0.15,0.24c-0.03,0.811,0,4.861,0.06,6.631
		c0.03,0.689,0.36,0.99,0.69,1.049c0.6,0.121,1.709,0.182,3.66,0.182c1.86,0,2.188-0.33,2.609-0.75
		c0.511-0.451,1.171-1.621,1.649-2.791c0.061-0.029,0.36,0.121,0.42,0.211c-0.119,0.84-0.869,3.209-1.199,3.869
		c-0.18,0.301-0.301,0.33-1.771,0.33c-1.8,0-3.12-0.09-7.29-0.09c-1.92,0-2.85,0.09-4.11,0.09c-0.06-0.061-0.06-0.391,0-0.48
		c0.78-0.059,1.41-0.09,1.92-0.24c0.69-0.18,0.93-0.539,1.02-1.709c0.03-0.721,0.06-4.17,0.06-7.59c0-2.85-0.03-5.609-0.06-6.209
		c-0.06-1.109-0.18-1.381-0.93-1.561c-0.36-0.119-0.78-0.18-1.35-0.24C214.972,304.372,215.002,304.072,215.092,304.011z"/>
</g>
<path fill="none" stroke="#000000" d="M221.804,34.471c105.926,0,191.797,85.869,191.797,191.797
	c0,105.926-85.871,191.801-191.797,191.801c-105.931,0-191.801-85.875-191.801-191.801C30.003,120.34,115.873,34.471,221.804,34.471
	z"/>
<path fill="none" stroke="#000000" stroke-width="0.5" d="M221.887,34.471c37.979,0,71.343,35.406,90.358,88.793"/>
<path fill="none" stroke="#000000" stroke-width="1.25" d="M312.245,123.264c10.596,29.756,16.738,65.099,16.738,103.008
	c0,17.758-1.348,34.953-3.871,51.277"/>
<line fill="none" stroke="#000000" stroke-width="0.5" x1="413.683" y1="226.268" x2="328.983" y2="226.268"/>
<line fill="none" stroke="#000000" stroke-width="0.5" stroke-dasharray="1,2" x1="295.376" y1="226.268" x2="221.374" y2="226.268"/>
<line fill="none" stroke="#000000" stroke-width="0.5" stroke-dasharray="1,2" x1="327.506" y1="226.268" x2="319.251" y2="226.268"/>
<line fill="none" stroke="#000000" stroke-width="0.5" x1="325.112" y1="277.549" x2="221.886" y2="226.268"/>
<line fill="none" stroke="#000000" stroke-width="0.5" x1="312.214" y1="123.282" x2="221.886" y2="226.268"/>
<circle cx="221.886" cy="226.268" r="6.377"/>
<circle cx="312.213" cy="123.282" r="6.378"/>
<g>
	<path d="M27.628,113.938c-0.978,0.662-1.712,1.627-2.446,2.97c-2.118,3.866-0.625,7.762,4.083,10.34
		c4.893,2.679,9.557,1.779,12.006-2.692c0.432-0.789,1.062-2.188,0.662-3.707c-0.31-1.059-0.775-1.895-1.484-3.035
		c0.017-0.093,0.307-0.311,0.427-0.278c1.102,1.048,2.434,3.11,2.418,3.889c-0.181,0.893-0.628,2.459-1.521,4.091
		c-3.097,5.656-8.016,7.271-13.567,4.231c-2.867-1.57-4.912-4.331-4.882-8.007c0-1.812,0.504-3.793,1.743-6.057
		c1.052-1.92,2.383-3.414,3.165-4.593c0.636,0.587,2.438,1.917,3.529,2.548c0.062,0.136-0.116,0.586-0.221,0.528
		C29.41,113.307,28.565,113.289,27.628,113.938z"/>
	<path d="M48.585,108.656c0.143,0.056,0.362,0.269,0.396,0.326c0.53,2.057,0.226,3.967-0.571,5.201
		c-0.813,1.262-1.917,1.977-3.113,2.168c-1.652,0.291-3.341-0.299-4.703-1.178c-2.042-1.317-3.043-3.142-3.013-5.014
		c-0.015-0.975,0.43-2.438,0.853-3.093c1.513-2.344,4.235-1.693,5.575-1.114c0.092,0.022,0.226,0.038,0.397-0.172
		c0.092,0.022,0.286,0.22,0.263,0.312c-0.307,1.195-2.366,4.829-3.568,6.802c-0.065,0.102,0.054,0.249,0.18,0.33
		c0.999,0.609,2.336,0.973,3.375,0.856c1.421-0.154,2.392-0.884,3.075-1.943c0.618-0.958,0.986-1.971,0.714-3.431
		C48.461,108.683,48.535,108.624,48.585,108.656z M40.271,112.467c0.076,0.049,0.184,0.047,0.2,0.022
		c0.49-0.648,2.357-3.764,2.573-4.374c0.007-0.066-0.003-0.217-0.104-0.281c-1.383-0.678-3.426-0.997-4.37,0.465
		C37.837,109.433,38.32,111.065,40.271,112.467z"/>
	<path d="M50.952,108.994c0.246-0.451,0.422-0.805,0.491-1.16c0.043-0.374-0.041-0.617-0.465-0.954
		c-0.969-0.76-2.855-2.094-6.578-4.729c-1.739-1.23-6.123-4.333-6.902-4.737c-0.36-0.219-0.622-0.367-0.928-0.144
		c-0.229,0.168-0.504,0.452-0.865,0.858c-0.125,0.021-0.329-0.159-0.343-0.243c0.63-1.098,1.164-2.631,1.365-3.85
		c0.059-0.032,0.167-0.029,0.191-0.012c0.33,0.417,0.995,1.035,2.587,2.162c1.208,0.892,3.796,2.688,5.854,4.144
		c3.967,2.808,5.797,4.065,6.517,4.502c0.77,0.471,1.066,0.57,1.498,0.325c0.313-0.184,0.587-0.467,0.889-0.842
		c0.091,0.028,0.343,0.243,0.357,0.326c-0.225,0.318-0.958,1.197-1.686,2.227c-0.693,0.979-1.348,2.061-1.573,2.379
		C51.229,109.226,51.008,109.07,50.952,108.994z"/>
	<path d="M55.078,100.083c0.498-0.114,0.87,0.09,1.182,0.325c0.192,0.144,0.503,0.527,0.533,0.889c0.06,0.42-0.061,0.78-0.295,1.092
		c-0.18,0.24-0.475,0.433-0.853,0.485s-0.756-0.043-1.068-0.277c-0.312-0.233-0.516-0.613-0.569-0.991
		c-0.029-0.359,0.025-0.731,0.241-1.02C54.448,100.323,54.808,100.143,55.078,100.083z"/>
	<path d="M61.084,94.809c0.229-0.479-0.176-0.882-0.626-1.325c-1.1-1.064-3.583-3.327-4.97-4.567
		c-0.134-0.12-0.534-0.438-0.917-0.459c-0.426-0.02-0.938,0.328-1.285,0.581c-0.087-0.038-0.273-0.325-0.255-0.391
		c0.753-0.977,1.304-2.537,1.449-3.373c0.02-0.021,0.105-0.026,0.127-0.007c0.179,0.16,1.053,0.983,1.366,1.264
		c0.045,0.04,0.149,0.013,0.147-0.029c0.114-2.152,0.543-3.621,1.183-4.336c0.92-1.028,2.266-1.273,3.498-0.896
		c0.087,0.038,0.145-0.071,0.143-0.113c0.144-2.006,0.52-3.641,1.32-4.534c1.48-1.654,3.515-1.364,5.636,0.495
		c1.183,1.018,3.507,3.098,4.422,3.876c0.201,0.18,0.4,0.317,0.631,0.283c0.401-0.043,0.726-0.315,1.333-0.859
		c0.087,0.038,0.313,0.28,0.297,0.385c-0.4,0.447-1.147,1.147-1.947,2.042c-0.94,1.051-1.375,1.627-1.733,2.074
		c-0.084,0.005-0.353-0.235-0.357-0.32c0.333-0.507,0.508-0.793,0.637-1.162c0.148-0.391-0.299-0.791-1.215-1.61
		c-1.5-1.384-3.271-3.049-4.104-3.512c-0.947-0.605-2.301-0.892-3.521,0.473c-0.52,0.581-0.877,1.429-0.896,2.62
		c0.004,0.084,0.116,0.185,0.161,0.225c0.507,0.333,1.086,0.811,1.622,1.291c1.185,1.06,3.222,2.923,4.178,3.698
		c0.288,0.218,0.567,0.266,0.794,0.146c0.332-0.146,0.639-0.354,1.104-0.784c0.107,0.016,0.333,0.259,0.317,0.363
		c-0.56,0.626-1.207,1.214-1.987,2.086c-0.72,0.806-1.354,1.647-1.713,2.051c-0.085,0.005-0.331-0.215-0.358-0.319
		c0.315-0.442,0.453-0.642,0.604-0.989c0.148-0.391-0.035-0.636-0.577-1.2c-1.035-1.047-4.14-3.786-4.866-4.233
		c-0.746-0.427-2.107-0.84-3.307,0.502c-0.34,0.38-0.742,1.188-0.819,2.085c-0.021,0.383,0,0.765,0.291,1.024
		c1.453,1.301,4.136,3.701,5.318,4.72c0.38,0.34,0.688,0.534,1.16,0.232c0.267-0.164,0.552-0.392,0.917-0.709
		c0.085-0.005,0.355,0.278,0.318,0.364c-0.46,0.514-1.208,1.214-1.927,2.019c-1.041,1.163-1.293,1.581-1.793,2.14
		c-0.105,0.026-0.375-0.255-0.358-0.32C60.838,95.354,60.973,95.114,61.084,94.809z"/>
	<path d="M81.06,71.286c0.125,0.088,0.289,0.346,0.309,0.411c0.035,2.123-0.708,3.908-1.772,4.924
		c-1.085,1.035-2.327,1.473-3.534,1.38c-1.674-0.104-3.179-1.073-4.297-2.246c-1.677-1.759-2.224-3.767-1.756-5.581
		c0.213-0.95,0.987-2.269,1.552-2.807c2.019-1.927,4.515-0.657,5.682,0.22c0.083,0.044,0.21,0.09,0.426-0.075
		c0.083,0.044,0.227,0.281,0.182,0.365c-0.578,1.09-3.43,4.142-5.061,5.78c-0.087,0.083-0.006,0.254,0.098,0.362
		c0.829,0.826,2.044,1.492,3.081,1.623c1.417,0.183,2.532-0.301,3.444-1.17c0.825-0.787,1.419-1.685,1.497-3.169
		C80.932,71.283,81.018,71.242,81.06,71.286z M72.083,73.046c0.062,0.064,0.167,0.089,0.189,0.068
		c0.627-0.517,3.172-3.108,3.524-3.651c0.023-0.063,0.047-0.211-0.035-0.298c-1.187-0.983-3.099-1.771-4.358-0.57
		C70.427,69.526,70.514,71.226,72.083,73.046z"/>
	<path d="M82.68,58.298c0.062,0.026,0.239,0.229,0.294,0.341c0.17,0.289,0.37,1.346,0.378,1.815c0,0-0.1,0.205-0.123,0.225
		c-0.697-0.072-1.416,0.152-1.847,0.525c-0.477,0.412-0.487,1.135-0.354,1.932c0.066,0.26,0.286,0.744,0.581,1.085
		c1.118,1.294,3.437,3.931,3.875,4.346c0.396,0.412,0.705,0.541,1.099,0.399c0.529-0.26,0.932-0.528,1.337-0.839
		c0.104,0.029,0.297,0.298,0.269,0.402c-0.318,0.274-1.489,1.168-2.352,1.913c-0.613,0.53-1.754,1.596-2.121,1.952
		c-0.085-0.006-0.301-0.256-0.314-0.362c0.252-0.259,0.557-0.641,0.703-0.886c0.125-0.268,0.144-0.521-0.186-0.949
		c-0.266-0.445-1.931-2.417-3.402-4.12c-0.765-0.887-1.393-1.612-1.694-1.868c-0.219-0.207-0.621-0.534-1.858,0.099
		c-0.059-0.067-0.213-0.292-0.187-0.354c0.622-0.657,1.583-2.161,1.859-3.035c0.022-0.021,0.13-0.033,0.149-0.01
		c0.331,0.428,1.233,1.473,1.606,1.903c0.02,0.022,0.107-0.014,0.11-0.056c-0.065-0.855-0.085-1.75,0.064-2.633
		c0.105-0.567,0.314-1.105,0.746-1.479C81.723,58.292,82.243,58.16,82.68,58.298z"/>
	<path d="M83.86,52.644c-0.061,0.164-0.595,0.745-0.834,0.782c-0.398,0.126-0.886-0.099-1.167-0.45
		c-0.173-0.168-0.314-0.439-0.333-0.656c0.014-0.317,0.328-0.838,0.656-1.101c0.305-0.244,0.675-0.309,0.802-0.295
		c0.253,0.028,0.506,0.249,0.618,0.389C83.94,51.735,84.024,52.322,83.86,52.644z M95.005,62.981
		c-0.492,0.395-1.462,1.055-2.212,1.653c-0.961,0.769-1.725,1.495-2.124,1.813c-0.084-0.01-0.309-0.291-0.3-0.375
		c0.31-0.286,0.624-0.614,0.764-0.918c0.188-0.343,0.155-0.624-0.346-1.299c-0.422-0.624-1.921-2.499-2.951-3.788
		c-0.731-0.913-1.387-1.733-1.729-2.113c-0.113-0.142-0.225-0.281-0.516-0.356c-0.417-0.089-0.778,0.084-1.293,0.304
		c-0.061-0.027-0.267-0.285-0.281-0.352c0.624-0.614,1.697-1.818,2.227-2.933c0.482,0.651,1.977,2.568,3.12,3.999
		c1.012,1.266,2.342,2.93,3.265,4.035c0.394,0.492,0.727,0.572,1.148,0.428c0.291-0.117,0.492-0.202,0.999-0.529
		C94.832,62.62,95.057,62.901,95.005,62.981z"/>
	<path d="M105.794,54.055c-0.293,0.619-1.761,2.789-2.212,3.188c-0.048,0.034-0.251-0.041-0.356-0.188
		c-0.165-0.177-0.664-0.815-0.944-1.206c-0.035-0.048-0.102-0.038-0.132,0.022c-0.457,1.366-1.39,3.148-2.338,3.834
		c-0.9,0.649-2.165,0.896-3.377,0.551c-1.26-0.311-2.51-1.222-3.494-2.584c-1.054-1.459-1.475-3.375-1.079-5.03
		c0.431-1.605,1.684-3.51,3.095-4.528c0.438-0.316,0.994-0.57,1.207-0.688c0.048-0.035,0.062-0.119,0.044-0.143
		c-2.441-3.382-3.284-4.549-3.79-5.146C92,41.665,91.72,41.533,91.285,41.7c-0.386,0.131-0.918,0.366-1.301,0.605
		c-0.077-0.056-0.204-0.334-0.215-0.399c1.532-1.106,2.701-2.358,3.196-3.159c0.066-0.012,0.178,0.093,0.213,0.142
		c0.051,0.481,0.332,0.87,1.337,2.365c0.917,1.373,2.983,4.285,5.09,7.204c2.406,3.332,3.379,4.628,3.877,5.267
		c0.674,0.882,0.897,0.833,1.158,0.682c0.358-0.223,0.681-0.492,0.938-0.751C105.674,53.734,105.808,53.971,105.794,54.055z
		 M92.883,51.906c-0.178,1.238,0.298,2.411,1.212,3.677c1.949,2.7,4.504,3.111,6.255,1.848c0.681-0.492,1.184-1.077,1.403-1.9
		c0.051-0.186-0.016-0.434-0.097-0.597c-0.408-0.667-2.924-4.253-3.675-5.19c-0.47-0.549-0.761-0.746-1.444-0.771
		c-0.774,0.004-1.554,0.309-2.332,0.87C93.572,50.298,93,51.044,92.883,51.906z"/>
	<path d="M101.545,39.942c-0.076,0.157-0.665,0.684-0.906,0.697c-0.409,0.087-0.872-0.185-1.117-0.562
		c-0.156-0.186-0.269-0.47-0.267-0.686c0.045-0.315,0.408-0.802,0.761-1.032c0.327-0.212,0.701-0.24,0.826-0.215
		c0.249,0.054,0.479,0.296,0.577,0.447C101.713,39.045,101.74,39.636,101.545,39.942z M111.626,51.313
		c-0.528,0.344-1.558,0.906-2.362,1.43c-1.031,0.671-1.862,1.318-2.29,1.597c-0.083-0.018-0.279-0.319-0.262-0.402
		c0.335-0.254,0.68-0.55,0.85-0.839c0.22-0.322,0.215-0.604-0.218-1.326c-0.359-0.662-1.667-2.673-2.567-4.056
		c-0.638-0.98-1.21-1.861-1.514-2.272c-0.098-0.15-0.196-0.302-0.478-0.404c-0.406-0.129-0.782,0.008-1.317,0.177
		c-0.058-0.034-0.237-0.311-0.245-0.377c0.68-0.55,1.866-1.643,2.502-2.701c0.416,0.695,1.716,2.748,2.714,4.282
		c0.883,1.357,2.045,3.144,2.855,4.334c0.343,0.528,0.667,0.64,1.101,0.537c0.3-0.088,0.509-0.152,1.045-0.429
		C111.489,50.937,111.686,51.24,111.626,51.313z"/>
	<path d="M112.59,39.545c-0.847-0.37-1.769-0.278-2.621,0.227c-0.413,0.245-0.662,0.531-0.792,0.783
		c-0.151,0.334-0.198,1.373,0.068,2.471c-0.032,0.123-0.644,0.032-0.766-0.174c-0.168-0.284-0.322-1.309-0.269-1.515
		c0.569-1.453,1.736-3.016,2.407-3.413c1.033-0.612,2.108-0.621,3.114-0.101c0.836,0.411,1.566,1.408,2.041,2.209
		c0.81,1.368,1.879,3.351,2.445,4.306c0.275,0.464,0.853,1.029,1.602,0.585c0.413-0.245,0.553-0.362,0.801-0.649
		c0.046,0.078,0.224,0.495,0.203,0.578c-0.196,1.023-0.87,1.771-1.463,2.122c-0.646,0.382-1.104,0.374-1.581,0.1
		c-0.169-0.109-0.445-0.399-0.578-0.564c-0.031-0.052-0.124-0.032-0.134,0.009c-0.667,1.406-1.555,2.734-2.071,3.04
		c-0.491,0.291-1.078,0.359-1.653,0.212c-0.822-0.21-1.631-0.812-2.167-1.716c-0.123-0.207-0.426-1.073-0.45-1.407
		c0.453-0.825,3.149-3.573,3.752-4.559c0.037-0.056,0.048-0.272,0.018-0.324c-0.158-0.325-0.382-0.645-0.597-1.007
		C113.609,40.267,113.103,39.764,112.59,39.545z M114.836,42.574c-0.958,1.091-2.29,2.61-2.416,3.104
		c-0.031,0.124,0.156,0.675,0.293,0.907c0.642,1.084,1.839,1.457,2.897,0.83c0.361-0.214,0.827-0.664,1.113-1.184
		c0.068-0.18,0.064-0.421-0.089-0.68c-0.448-0.814-1.431-2.535-1.691-2.974C114.929,42.554,114.847,42.533,114.836,42.574z"/>
	<path d="M122.515,44.055c0.305-0.325,0.193-0.807-0.04-1.328c-0.399-0.976-1.37-2.804-2.164-4.353
		c-0.685-1.335-1.204-2.283-1.326-2.457c-0.218-0.293-0.474-0.398-1.666-0.158c-0.054-0.04-0.178-0.347-0.111-0.415
		c0.973-0.667,2.129-1.833,2.604-2.616c0.027-0.014,0.107,0.013,0.135,0.065c0.221,0.562,0.495,1.163,0.701,1.63
		c0.041,0.08,0.122,0.106,0.161,0.052c0.958-2.143,1.954-3.227,2.782-3.65c1.068-0.548,2.103-0.438,3.075,0.144
		c0.864,0.501,1.544,1.434,2.201,2.716c0.712,1.389,1.971,3.846,2.545,4.899c0.164,0.319,0.354,0.493,0.662,0.437
		c0.429-0.018,0.791-0.102,1.299-0.295c0.068,0.066,0.192,0.374,0.139,0.468c-0.374,0.191-1.029,0.427-2.364,1.11
		c-1.282,0.657-2.029,1.107-2.576,1.422c-0.081-0.025-0.245-0.347-0.219-0.427c0.453-0.3,0.8-0.545,0.933-0.681
		c0.359-0.354,0.315-0.701,0.136-1.115c-0.549-1.202-2.342-4.768-2.941-5.607c-0.312-0.413-0.91-1.118-1.65-1.312
		c-0.525-0.169-1.129-0.163-1.93,0.248c-0.774,0.396-1.372,1.074-1.711,1.99c-0.091,0.282-0.062,0.537,0.226,1.098
		c1.027,2.003,2.354,4.593,3.01,5.741c0.424,0.761,0.653,0.879,1.028,0.821c0.295-0.017,0.79-0.169,1.245-0.334
		c0.054,0.04,0.178,0.348,0.192,0.441c-0.454,0.232-1.243,0.536-2.604,1.234c-1.549,0.793-1.962,1.105-2.389,1.325
		c-0.081-0.025-0.231-0.319-0.219-0.428C122.01,44.516,122.303,44.298,122.515,44.055z"/>
</g>
<path fill="none" stroke="#E12526" d="M291.315,169.534"/>
<path fill="none" stroke="#000000" stroke-width="0.5" stroke-dasharray="1,2" d="M314.988,173.142
	c4.422,0.748,5.905,0.983,10.112,1.836"/>
<path fill="none" stroke="#000000" stroke-width="0.5" stroke-dasharray="1,2" d="M273.306,167.636
	c6.131,0.541,16.112,1.742,21.981,2.465"/>
<g>
	<path d="M75.852,283.385l6.466,1.999l1.231-3.982c0.22-0.712,0.32-1.194,0.301-1.447c-0.016-0.192-0.114-0.384-0.295-0.574
		c-0.244-0.256-0.529-0.434-0.858-0.535l-0.493-0.152l0.118-0.38l5.953,1.84l-0.118,0.38l-0.493-0.152
		c-0.328-0.102-0.664-0.119-1.007-0.053c-0.253,0.042-0.453,0.162-0.6,0.36c-0.147,0.197-0.327,0.639-0.539,1.323l-2.775,8.98
		c-0.218,0.704-0.317,1.184-0.298,1.437c0.016,0.192,0.11,0.383,0.285,0.571c0.25,0.258,0.54,0.437,0.868,0.538l0.492,0.152
		l-0.117,0.38l-5.953-1.84l0.118-0.38l0.492,0.152c0.568,0.176,1.034,0.136,1.397-0.119c0.239-0.166,0.487-0.666,0.745-1.501
		l1.31-4.239l-6.466-1.998l-1.31,4.238c-0.218,0.705-0.317,1.184-0.298,1.438c0.015,0.192,0.114,0.384,0.294,0.574
		c0.244,0.255,0.529,0.434,0.858,0.535l0.503,0.155l-0.117,0.38l-5.963-1.843l0.117-0.38l0.493,0.152
		c0.575,0.178,1.044,0.139,1.408-0.116c0.231-0.168,0.477-0.669,0.735-1.504l2.775-8.98c0.22-0.712,0.32-1.194,0.301-1.447
		c-0.016-0.192-0.11-0.383-0.284-0.571c-0.25-0.258-0.54-0.437-0.868-0.538l-0.493-0.152l0.117-0.38l5.963,1.843l-0.117,0.38
		l-0.503-0.155c-0.329-0.102-0.664-0.119-1.007-0.053c-0.246,0.044-0.444,0.164-0.595,0.361s-0.332,0.638-0.543,1.322
		L75.852,283.385z"/>
	<path d="M92.277,285.695c1.441,0.375,2.456,1.224,3.044,2.546c0.498,1.129,0.589,2.3,0.273,3.513
		c-0.222,0.853-0.651,1.662-1.288,2.429s-1.371,1.278-2.204,1.535c-0.833,0.257-1.689,0.271-2.569,0.042
		c-1.435-0.374-2.426-1.242-2.974-2.606c-0.463-1.148-0.538-2.323-0.226-3.521c0.228-0.874,0.67-1.686,1.328-2.436
		s1.394-1.239,2.208-1.468C90.685,285.5,91.487,285.489,92.277,285.695z M91.778,286.286c-0.367-0.096-0.765-0.083-1.192,0.039
		c-0.427,0.122-0.827,0.427-1.198,0.914c-0.371,0.488-0.668,1.162-0.893,2.021c-0.361,1.386-0.396,2.653-0.107,3.802
		c0.289,1.148,0.884,1.84,1.785,2.074c0.672,0.175,1.299,0.042,1.88-0.398s1.047-1.337,1.399-2.688
		c0.44-1.69,0.423-3.116-0.052-4.276C93.082,286.981,92.541,286.485,91.778,286.286z"/>
	<path d="M100.452,287.738l-0.517,2.151c1.145-1.242,2.139-1.763,2.981-1.56c0.383,0.092,0.672,0.284,0.867,0.577
		c0.195,0.294,0.255,0.594,0.182,0.9c-0.065,0.271-0.211,0.479-0.437,0.624s-0.464,0.187-0.715,0.127
		c-0.244-0.059-0.488-0.244-0.733-0.558c-0.245-0.312-0.441-0.487-0.587-0.521c-0.125-0.03-0.278,0.007-0.458,0.11
		c-0.382,0.211-0.819,0.604-1.31,1.178l-1.101,4.585c-0.127,0.529-0.157,0.945-0.09,1.249c0.045,0.21,0.168,0.405,0.368,0.586
		c0.2,0.18,0.516,0.322,0.947,0.426l-0.09,0.376l-4.899-1.176l0.09-0.376c0.487,0.117,0.868,0.127,1.142,0.031
		c0.201-0.07,0.365-0.218,0.493-0.445c0.063-0.11,0.162-0.443,0.295-1.001l0.89-3.708c0.267-1.114,0.404-1.783,0.41-2.006
		c0.005-0.224-0.041-0.398-0.139-0.525c-0.099-0.127-0.238-0.212-0.419-0.255c-0.216-0.052-0.472-0.059-0.769-0.019l-0.014-0.401
		l3.174-0.476L100.452,287.738z"/>
	<path d="M107.595,289.402l-1.758,7.708c-0.137,0.601-0.185,1.011-0.143,1.229s0.137,0.396,0.286,0.533s0.45,0.257,0.904,0.36
		l-0.086,0.377l-4.661-1.062l0.086-0.377c0.468,0.106,0.792,0.133,0.974,0.079c0.181-0.055,0.343-0.176,0.485-0.363
		c0.142-0.188,0.28-0.579,0.416-1.173l0.843-3.697c0.237-1.04,0.359-1.721,0.367-2.042c0.002-0.235-0.04-0.408-0.125-0.52
		c-0.084-0.11-0.218-0.187-0.399-0.229c-0.195-0.044-0.445-0.046-0.748-0.005l-0.061-0.411l3.158-0.514L107.595,289.402z
		 M107.87,284.187c0.293,0.066,0.519,0.227,0.678,0.479s0.205,0.525,0.138,0.819c-0.067,0.293-0.227,0.521-0.481,0.684
		c-0.253,0.162-0.527,0.21-0.82,0.144c-0.293-0.067-0.521-0.229-0.683-0.486c-0.162-0.257-0.209-0.532-0.142-0.826
		c0.067-0.293,0.227-0.519,0.479-0.678S107.569,284.118,107.87,284.187z"/>
	<path d="M116.596,298.681l-0.764,2.923l-8.477-1.865l0.083-0.378l8.249-7.095l-3.147-0.692c-0.679-0.149-1.132-0.203-1.361-0.162
		c-0.229,0.042-0.437,0.17-0.624,0.386c-0.266,0.308-0.469,0.718-0.611,1.229l-0.419-0.093l0.649-2.65l8.058,1.772l-0.085,0.388
		l-8.316,7.102l3.504,0.771c0.735,0.161,1.247,0.21,1.536,0.146c0.289-0.065,0.548-0.233,0.777-0.506
		c0.161-0.199,0.359-0.65,0.595-1.354L116.596,298.681z"/>
	<path d="M123.509,292.865c1.458,0.303,2.515,1.1,3.168,2.391c0.554,1.103,0.704,2.268,0.449,3.494
		c-0.179,0.863-0.567,1.693-1.164,2.49c-0.597,0.798-1.305,1.346-2.124,1.645c-0.819,0.298-1.674,0.354-2.564,0.17
		c-1.452-0.302-2.485-1.119-3.1-2.454c-0.52-1.125-0.654-2.293-0.402-3.507c0.183-0.883,0.584-1.716,1.204-2.498
		s1.33-1.308,2.132-1.576S122.709,292.698,123.509,292.865z M123.041,293.481c-0.372-0.077-0.768-0.044-1.189,0.099
		s-0.805,0.468-1.151,0.974c-0.346,0.506-0.609,1.193-0.79,2.062c-0.291,1.403-0.264,2.67,0.083,3.803
		c0.346,1.133,0.976,1.793,1.887,1.982c0.68,0.142,1.3-0.022,1.858-0.492c0.558-0.469,0.979-1.388,1.263-2.755
		c0.355-1.711,0.267-3.134-0.266-4.269C124.377,294.109,123.812,293.641,123.041,293.481z"/>
	<path d="M131.363,296.564c1.386-1.157,2.592-1.642,3.621-1.452c0.528,0.097,0.958,0.312,1.29,0.646s0.555,0.825,0.668,1.472
		c0.077,0.451,0.035,1.114-0.125,1.987l-0.76,4.131c-0.113,0.612-0.14,1.037-0.082,1.273c0.045,0.19,0.145,0.351,0.299,0.481
		c0.154,0.13,0.464,0.238,0.929,0.323l-0.07,0.381l-4.786-0.881l0.07-0.38l0.201,0.036c0.451,0.083,0.779,0.072,0.983-0.031
		c0.205-0.104,0.367-0.284,0.487-0.539c0.048-0.101,0.123-0.429,0.225-0.985l0.729-3.962c0.162-0.88,0.165-1.54,0.009-1.98
		c-0.156-0.439-0.504-0.71-1.047-0.81c-0.838-0.154-1.757,0.15-2.757,0.912l-0.939,5.104c-0.121,0.654-0.156,1.066-0.107,1.236
		c0.061,0.222,0.169,0.396,0.324,0.523c0.155,0.127,0.497,0.239,1.025,0.336l-0.07,0.381l-4.786-0.881l0.07-0.381l0.211,0.039
		c0.493,0.091,0.849,0.027,1.067-0.191c0.219-0.218,0.393-0.68,0.522-1.384l0.661-3.592c0.214-1.162,0.318-1.875,0.312-2.139
		c-0.006-0.263-0.056-0.45-0.147-0.562c-0.093-0.112-0.23-0.185-0.414-0.219c-0.197-0.036-0.443-0.026-0.737,0.028l-0.088-0.409
		l3.133-0.646l0.455,0.083L131.363,296.564z"/>
</g>
<g>
	<path d="M310.208,226.392l-0.062,6.152l2.498,1.104c0.613,0.271,1.074,0.409,1.377,0.412c0.243,0.002,0.457-0.11,0.643-0.339
		c0.188-0.229,0.311-0.726,0.373-1.491l0.434,0.005l-0.051,5.004l-0.434-0.005c-0.111-0.665-0.259-1.097-0.445-1.293
		c-0.37-0.402-1.127-0.852-2.271-1.348l-13.019-5.725l0.003-0.409l13.275-5.396c1.067-0.435,1.762-0.832,2.08-1.192
		c0.32-0.359,0.504-0.863,0.549-1.512l0.436,0.005l-0.065,6.269l-0.435-0.004c-0.023-0.633-0.125-1.062-0.303-1.287
		c-0.178-0.225-0.395-0.338-0.652-0.34c-0.344-0.004-0.889,0.146-1.634,0.452L310.208,226.392z M309.339,226.711l-6.449,2.629
		l6.393,2.832L309.339,226.711z"/>
	<path d="M298.642,216.19l14.23-0.486c0.672-0.023,1.113-0.087,1.328-0.192c0.217-0.105,0.377-0.261,0.484-0.468
		c0.105-0.207,0.149-0.588,0.131-1.142l0.421-0.015l0.179,5.259l-0.42,0.014c-0.018-0.491-0.08-0.825-0.188-1.001
		c-0.107-0.177-0.279-0.312-0.518-0.405c-0.238-0.093-0.689-0.129-1.352-0.105l-9.744,0.333c-1.211,0.041-1.953,0.094-2.229,0.158
		s-0.461,0.158-0.559,0.283c-0.099,0.124-0.145,0.28-0.137,0.467c0.006,0.204,0.078,0.46,0.213,0.768l-0.403,0.213l-1.421-3.152
		L298.642,216.19z"/>
	<path d="M300.796,210.569l3.522-0.176l-0.125-2.505l0.819-0.041l0.125,2.505l6.952-0.347c0.694-0.035,1.157-0.158,1.39-0.369
		c0.231-0.211,0.34-0.473,0.324-0.785c-0.012-0.257-0.105-0.503-0.277-0.736c-0.172-0.234-0.417-0.41-0.736-0.526l-0.023-0.457
		c0.779,0.235,1.374,0.593,1.785,1.072c0.412,0.48,0.629,0.985,0.656,1.517c0.019,0.358-0.064,0.715-0.244,1.068
		c-0.184,0.354-0.455,0.621-0.818,0.803c-0.361,0.183-0.93,0.293-1.701,0.332l-7.211,0.36l0.086,1.696l-0.387,0.02
		c-0.193-0.421-0.506-0.845-0.938-1.273c-0.433-0.428-0.938-0.804-1.518-1.126c-0.305-0.165-0.859-0.388-1.664-0.668
		L300.796,210.569z"/>
	<path d="M298.073,205.07c-0.02-0.328,0.078-0.613,0.293-0.858c0.215-0.244,0.487-0.377,0.814-0.397
		c0.328-0.021,0.615,0.077,0.863,0.293c0.248,0.215,0.383,0.485,0.404,0.813c0.021,0.327-0.079,0.615-0.299,0.864
		c-0.219,0.249-0.492,0.383-0.818,0.403c-0.328,0.021-0.613-0.077-0.859-0.292C298.228,205.68,298.095,205.405,298.073,205.07z
		 M303.615,203.747l8.608-0.542c0.67-0.042,1.113-0.118,1.33-0.229c0.215-0.111,0.373-0.266,0.469-0.465
		c0.098-0.197,0.13-0.549,0.1-1.057l0.42-0.026l0.326,5.204l-0.42,0.027c-0.033-0.522-0.105-0.87-0.219-1.043
		s-0.289-0.305-0.529-0.396s-0.691-0.115-1.355-0.073l-4.128,0.26c-1.162,0.072-1.911,0.154-2.251,0.246
		c-0.246,0.07-0.414,0.167-0.504,0.29c-0.091,0.123-0.129,0.286-0.117,0.489c0.016,0.218,0.09,0.479,0.227,0.784l-0.41,0.189
		l-1.514-3.146L303.615,203.747z"/>
	<path d="M300.027,198.468l3.519-0.257l-0.184-2.501l0.818-0.06l0.183,2.501l6.942-0.506c0.693-0.05,1.154-0.184,1.381-0.4
		c0.227-0.216,0.329-0.48,0.307-0.792c-0.02-0.257-0.117-0.5-0.295-0.73c-0.177-0.229-0.426-0.399-0.746-0.509l-0.035-0.455
		c0.784,0.216,1.387,0.561,1.809,1.031c0.423,0.471,0.652,0.97,0.691,1.5c0.025,0.358-0.047,0.717-0.222,1.073
		c-0.174,0.357-0.438,0.632-0.798,0.822c-0.357,0.19-0.924,0.313-1.693,0.37l-7.199,0.524l0.121,1.694l-0.385,0.028
		c-0.203-0.415-0.524-0.833-0.967-1.251c-0.441-0.418-0.955-0.782-1.541-1.092c-0.311-0.158-0.869-0.367-1.68-0.63L300.027,198.468z
		"/>
	<path d="M302.56,185.828l6.482-0.532c1.238-0.103,1.992-0.193,2.264-0.275c0.271-0.08,0.457-0.189,0.555-0.326
		c0.1-0.139,0.141-0.293,0.127-0.464c-0.02-0.241-0.107-0.509-0.266-0.802l0.396-0.196l1.581,3.092l0.043,0.525l-2.265,0.186
		c1.072,0.837,1.756,1.486,2.053,1.948s0.467,0.961,0.51,1.498c0.05,0.601-0.08,1.134-0.391,1.603
		c-0.311,0.468-0.73,0.811-1.262,1.026s-1.295,0.365-2.291,0.446l-4.777,0.393c-0.506,0.042-0.852,0.125-1.037,0.25
		c-0.188,0.125-0.322,0.299-0.412,0.521c-0.086,0.223-0.104,0.614-0.049,1.174l-0.434,0.036l-0.307-3.75l7.16-0.587
		c0.996-0.082,1.637-0.309,1.918-0.681c0.284-0.373,0.404-0.804,0.364-1.294c-0.027-0.335-0.163-0.706-0.409-1.113
		c-0.244-0.407-0.688-0.878-1.326-1.414l-6.062,0.498c-0.607,0.05-1.008,0.194-1.205,0.435c-0.195,0.239-0.271,0.709-0.23,1.412
		l-0.432,0.035L302.56,185.828z"/>
	<path d="M311.146,175.417c0.594,0.468,1.035,0.938,1.321,1.412c0.286,0.475,0.458,0.999,0.515,1.575
		c0.113,1.165-0.273,2.232-1.164,3.199c-0.889,0.968-2.1,1.526-3.631,1.677s-2.982-0.193-4.348-1.032
		c-1.367-0.839-2.124-2.017-2.272-3.532c-0.093-0.94,0.13-1.748,0.667-2.421l-1.971,0.194c-1.22,0.119-1.967,0.223-2.241,0.309
		s-0.456,0.196-0.544,0.33c-0.09,0.135-0.125,0.295-0.107,0.481c0.02,0.202,0.109,0.465,0.267,0.786l-0.394,0.192l-1.619-3.056
		l-0.052-0.524l12.351-1.216c1.252-0.124,2.012-0.229,2.282-0.313c0.271-0.086,0.454-0.198,0.55-0.337s0.137-0.294,0.119-0.465
		c-0.021-0.21-0.114-0.483-0.281-0.82l0.396-0.168l1.629,3.042l0.055,0.536L311.146,175.417z M310.327,175.497l-5.504,0.543
		c-0.523,0.099-0.992,0.286-1.404,0.562c-0.414,0.275-0.711,0.617-0.895,1.023c-0.184,0.407-0.258,0.793-0.221,1.158
		c0.066,0.685,0.434,1.264,1.101,1.74c0.879,0.628,2.095,0.865,3.649,0.712c1.572-0.154,2.74-0.614,3.51-1.381
		c0.768-0.767,1.111-1.57,1.027-2.409C311.521,176.739,311.101,176.089,310.327,175.497z"/>
	<path d="M305.058,170.16c1.581-0.204,2.768-0.753,3.562-1.647s1.123-1.864,0.982-2.91c-0.092-0.697-0.365-1.277-0.818-1.74
		c-0.451-0.464-1.166-0.809-2.141-1.031l0.184-0.392c1.082,0.021,2.111,0.363,3.088,1.028c0.976,0.666,1.541,1.588,1.699,2.765
		c0.172,1.277-0.18,2.438-1.054,3.48c-0.873,1.044-2.149,1.677-3.831,1.902c-1.819,0.243-3.301-0.034-4.443-0.83
		c-1.143-0.797-1.809-1.9-1.998-3.31c-0.16-1.192,0.103-2.225,0.786-3.097c0.684-0.871,1.684-1.396,2.999-1.571L305.058,170.16z
		 M304.384,170.25l-0.658-4.925c-0.676,0.129-1.146,0.275-1.408,0.437c-0.408,0.251-0.709,0.586-0.906,1.002
		c-0.195,0.417-0.268,0.834-0.211,1.252c0.086,0.643,0.412,1.185,0.98,1.625C302.748,170.08,303.481,170.284,304.384,170.25z"/>
</g>
</svg>
